<?xml version="1.0" encoding="iso-8859-1"?>
<!-- Generator: Adobe Illustrator 17.1.0, SVG Export Plug-In . SVG Version: 6.00 Build 0)  -->
<!DOCTYPE svg PUBLIC "-//W3C//DTD SVG 1.1//EN" "http://www.w3.org/Graphics/SVG/1.1/DTD/svg11.dtd">
<svg version="1.1" id="Capa_1" xmlns="http://www.w3.org/2000/svg" xmlns:xlink="http://www.w3.org/1999/xlink" x="0px" y="0px"
	 viewBox="0 0 512 512" style="enable-background:new 0 0 512 512;" xml:space="preserve">
<g>
	<path d="M368,368h-15.996c-4.418,0-8,3.582-8,8s3.582,8,8,8H368c4.418,0,8-3.582,8-8S372.418,368,368,368z"/>
	<path d="M440,371.35V248c0-91.255-66.779-167.193-154.033-181.547C292.203,59.397,296,50.136,296,40c0-22.056-17.944-40-40-40
		s-40,17.944-40,40c0,10.136,3.797,19.397,10.033,26.453C138.779,80.807,72,156.745,72,248v123.35c-14.113,6.185-24,20.281-24,36.65
		c0,22.056,17.944,40,40,40h89.605c7.461,36.95,39.977,64,78.395,64s70.933-27.05,78.395-64H424c22.056,0,40-17.944,40-40
		C464,391.631,454.113,377.535,440,371.35z M232,40c0-13.233,10.767-24,24-24s24,10.767,24,24s-10.767,24-24,24S232,53.233,232,40z
		 M256,496c-29.621,0-54.86-20.091-61.993-48h89.702c-5.602,9.654-16.071,16-27.709,16c-4.418,0-8,3.582-8,8s3.582,8,8,8
		c20.491,0,38.577-13.121,45.259-32h16.734C310.86,475.909,285.621,496,256,496z M424,432h-96.363c-0.013,0-0.027,0-0.04,0h-32.364
		c-0.037,0-0.073,0-0.109,0H184.405c-0.015,0-0.03,0-0.045,0H88c-13.234,0-24-10.767-24-24s10.766-24,24-24h232.002
		c4.418,0,8-3.582,8-8s-3.582-8-8-8H88V248c0-92.636,75.364-168,168-168s168,75.364,168,168v120h-24c-4.418,0-8,3.582-8,8
		s3.582,8,8,8h24c13.234,0,24,10.767,24,24S437.234,432,424,432z"/>
	<path d="M392,248v8c0,4.418,3.582,8,8,8s8-3.582,8-8v-8c0-30.07-8.768-59.146-25.355-84.083c-2.447-3.679-7.413-4.678-11.092-2.23
		s-4.677,7.413-2.23,11.092C384.158,195.082,392,221.093,392,248z"/>
	<path d="M351.976,148.648c2.197,0,4.385-0.899,5.965-2.665c2.946-3.293,2.665-8.351-0.627-11.297
		c-5.413-4.844-11.224-9.338-17.272-13.359c-3.68-2.445-8.645-1.447-11.091,2.232s-1.446,8.646,2.233,11.092
		c5.414,3.6,10.616,7.623,15.462,11.959C348.171,147.977,350.077,148.648,351.976,148.648z"/>
</g>
</svg>
