<?xml version="1.0" encoding="iso-8859-1"?>
<!-- Generator: Adobe Illustrator 19.1.0, SVG Export Plug-In . SVG Version: 6.00 Build 0)  -->
<svg version="1.1" id="Capa_1" xmlns="http://www.w3.org/2000/svg" xmlns:xlink="http://www.w3.org/1999/xlink" x="0px" y="0px"
	 viewBox="0 0 478.825 478.825" style="enable-background:new 0 0 478.825 478.825;" xml:space="preserve">
<g>
	<g>
		<path d="M303.913,32.896c1.2,0.4,2.4,0.6,3.6,0.6c5.1,0,9.8-3.3,11.5-8.4c2-6.3-1.5-13.1-7.9-15c-6.3-2-13,1.5-15,7.9
			C294.113,24.196,297.613,30.996,303.913,32.896z"/>
		<path d="M261.213,24.196c0.4,0,0.8,0.1,1.2,0.1c6.1,0,11.3-4.6,11.9-10.8c0.7-6.6-4.1-12.5-10.8-13.1c-6.6-0.7-12.5,4.1-13.1,10.7
			S254.613,23.596,261.213,24.196z"/>
		<path d="M171.213,33.496c1.2,0,2.4-0.2,3.6-0.5c6.3-2,9.8-8.7,7.9-15c-2-6.3-8.7-9.8-15-7.9c-6.3,2-9.8,8.7-7.9,15
			C161.413,30.196,166.113,33.496,171.213,33.496z"/>
		<path d="M344.013,50.096c1.8,1,3.8,1.5,5.8,1.5c4.2,0,8.3-2.2,10.5-6.2c3.2-5.8,1.1-13.1-4.7-16.3c-5.8-3.2-13.1-1.1-16.3,4.7
			S338.213,46.896,344.013,50.096z"/>
		<path d="M128.913,51.696c2,0,4-0.5,5.8-1.5c5.8-3.2,7.9-10.5,4.7-16.3s-10.5-7.9-16.3-4.7c-5.8,3.2-7.9,10.5-4.7,16.3
			C120.613,49.496,124.713,51.696,128.913,51.696z"/>
		<path d="M379.813,75.096c2.3,1.9,5,2.9,7.8,2.9c3.4,0,6.7-1.4,9.1-4.2c4.3-5,3.7-12.6-1.3-16.9s-12.6-3.7-16.9,1.3
			C374.213,63.196,374.813,70.796,379.813,75.096z"/>
		<path d="M443.813,150.396c1.8,0,3.6-0.4,5.3-1.2c5.9-2.9,8.4-10.1,5.5-16.1s-10.1-8.4-16.1-5.5c-5.9,2.9-8.4,10.1-5.5,16.1
			C435.113,147.896,439.413,150.396,443.813,150.396z"/>
		<path d="M448.213,184.496c1.4,5.4,6.3,9,11.6,9c1,0,2-0.1,3-0.4c6.4-1.7,10.3-8.2,8.6-14.6c-1.7-6.4-8.2-10.3-14.6-8.6
			C450.413,171.596,446.513,178.096,448.213,184.496z"/>
		<path d="M466.213,215.096c-6.6,0.3-11.7,6-11.4,12.6c0.3,6.4,5.6,11.4,12,11.4c0.2,0,0.4,0,0.6,0c6.6-0.3,11.7-6,11.4-12.6
			C478.413,219.796,472.813,214.696,466.213,215.096z"/>
		<path d="M216.313,24.296c0.4,0,0.8,0,1.2-0.1c6.6-0.7,11.4-6.5,10.7-13.1s-6.5-11.4-13.1-10.7s-11.4,6.5-10.7,13.1
			C205.013,19.696,210.213,24.296,216.313,24.296z"/>
		<path d="M439.113,348.796c-5.6-3.5-13-1.8-16.5,3.8c-3.5,5.6-1.8,13,3.8,16.5c2,1.2,4.2,1.8,6.3,1.8c4,0,7.9-2,10.2-5.7
			C446.513,359.696,444.713,352.296,439.113,348.796z"/>
		<path d="M466.313,261.196c-6.5-1-12.7,3.5-13.7,10.1c-1,6.5,3.5,12.7,10.1,13.6c0.6,0.1,1.2,0.1,1.8,0.1c5.8,0,10.9-4.3,11.8-10.2
			C477.413,268.296,472.813,262.196,466.313,261.196z"/>
		<path d="M428.813,91.996c-4.1-5.2-11.6-6.2-16.8-2.1c-5.2,4.1-6.2,11.6-2.1,16.8c2.4,3,5.9,4.6,9.5,4.6c2.6,0,5.2-0.8,7.3-2.5
			C431.913,104.796,432.913,97.196,428.813,91.996z"/>
		<path d="M91.213,77.996c2.8,0,5.6-1,7.8-2.9c5-4.3,5.6-11.9,1.3-16.9c-4.3-5-11.9-5.6-16.9-1.3c-5,4.3-5.6,11.9-1.3,16.9
			C84.413,76.596,87.813,77.996,91.213,77.996z"/>
		<path d="M68.913,106.696c4.1-5.2,3.1-12.8-2.1-16.8c-5.2-4.1-12.8-3.1-16.8,2.1c-4.1,5.2-3.1,12.8,2.1,16.8
			c2.2,1.7,4.8,2.5,7.4,2.5C63.013,111.396,66.513,109.796,68.913,106.696z"/>
		<path d="M37.013,313.496c-2.3-6.2-9.2-9.4-15.4-7.1s-9.4,9.2-7.1,15.4c1.8,4.8,6.4,7.8,11.3,7.8c1.4,0,2.8-0.2,4.2-0.8
			C36.213,326.696,39.313,319.796,37.013,313.496z"/>
		<path d="M11.413,239.096c0.2,0,0.4,0,0.6,0c6.4,0,11.7-5,12-11.4c0.3-6.6-4.8-12.3-11.4-12.6s-12.3,4.8-12.6,11.4
			C-0.287,233.096,4.813,238.796,11.413,239.096z"/>
		<path d="M56.213,352.696c-3.5-5.6-10.9-7.3-16.5-3.8s-7.4,10.9-3.8,16.5c2.3,3.7,6.2,5.7,10.2,5.7c2.2,0,4.4-0.6,6.3-1.8
			C58.013,365.696,59.713,358.296,56.213,352.696L56.213,352.696z"/>
		<path d="M16.113,284.996c6.6-1,11.1-7.1,10.1-13.7s-7.1-11.1-13.7-10.1c-6.5,1-11.1,7.1-10.1,13.7l0,0c0.9,6,6,10.2,11.8,10.2
			C14.913,285.096,15.513,285.096,16.113,284.996z"/>
		<path d="M16.013,193.196c1,0.3,2,0.4,3,0.4c5.3,0,10.2-3.6,11.6-9c1.7-6.4-2.2-13-8.6-14.6c-6.4-1.7-13,2.2-14.6,8.6
			C5.713,184.996,9.613,191.596,16.013,193.196z"/>
		<path d="M29.713,149.196c1.7,0.8,3.5,1.2,5.3,1.2c4.4,0,8.7-2.5,10.8-6.7c2.9-6,0.5-13.1-5.5-16.1c-5.9-2.9-13.1-0.5-16.1,5.5
			C21.313,139.096,23.813,146.296,29.713,149.196z"/>
		<path d="M457.213,306.396c-6.2-2.3-13.1,0.9-15.4,7.1s0.9,13.1,7.1,15.4c1.4,0.5,2.8,0.7,4.2,0.7c4.9,0,9.5-3,11.3-7.8
			C466.613,315.596,463.413,308.696,457.213,306.396z"/>
		<path d="M407.213,383.996c-47.3-11.1-73.1-28.7-86.4-41.4c-9.8-9.3-14.3-17.5-16.3-21.7c2.3-2.1,4.6-4.4,6.7-6.8
			c39.8-44.8,33-122,32.3-128.9c-2.6-53.3-27.1-79.4-47.3-91.9c-22.9-14.2-47.1-15.7-56.5-15.7c-0.9,0-1.7,0-2.3,0s-1.4,0-2.3,0
			c-9.3,0-33.6,1.5-56.5,15.7c-20.2,12.5-44.8,38.6-47.3,91.9c-0.7,7-7.5,84.1,32.3,128.9c3.2,3.7,6.7,7,10.4,10
			c-3.1,9-19.4,37.1-102.9,59.8c-4.1,1.1-7.2,4.2-8.4,8.3s-0.1,8.4,2.7,11.5l0.1,0.1c22.2,23.4,48.3,41.7,77.6,54.6
			c30.4,13.3,62.8,20.1,96.2,20.1s65.8-6.7,96.1-20.1c29.3-12.9,55.4-31.2,77.6-54.5c3-3.1,4-7.6,2.8-11.7
			C414.713,388.096,411.313,384.996,407.213,383.996z M155.213,187.296c0-0.2,0-0.5,0.1-0.7c3.6-78.9,62-85,79.9-85
			c0.8,0,1.4,0,1.8,0c0.3,0,0.6,0,0.9,0c0.4,0,1,0,1.8,0c17.8,0,76.2,6.1,79.9,85c0,0.2,0,0.5,0.1,0.7c0.1,0.7,7.5,72.7-26.4,110.8
			c-13.6,15.3-31.7,22.8-55.3,23.1c-0.2,0-0.3,0-0.5,0c0,0,0,0-0.1,0s0,0-0.1,0s-0.3,0-0.5,0c-23.6-0.2-41.7-7.8-55.3-23
			C147.813,260.196,155.113,187.996,155.213,187.296z M239.413,454.496c-53,0-102.7-18.8-142-53.3c66.6-21.5,89.5-47.6,97.3-64.3
			c12.2,5.3,25.9,8.1,41.1,8.4c0.5,0,1,0,1.6,0c0.2,0,0.4,0,0.6,0c0.3,0,0.7,0,1,0c17.1-0.3,32.3-3.8,45.6-10.5
			c8.7,16.3,33,47.4,96.2,67C341.613,435.896,292.113,454.496,239.413,454.496z"/>
	</g>
</g>
<g>
</g>
<g>
</g>
<g>
</g>
<g>
</g>
<g>
</g>
<g>
</g>
<g>
</g>
<g>
</g>
<g>
</g>
<g>
</g>
<g>
</g>
<g>
</g>
<g>
</g>
<g>
</g>
<g>
</g>
</svg>
